<?xml version="1.0" encoding="utf-8"?>
<svg viewBox="0.906 -3.586 310.971 358.154" xmlns="http://www.w3.org/2000/svg" xmlns:bx="https://boxy-svg.com">
  <rect x="339.514" y="161.671" width="70.684" height="356.743" style="fill: rgb(39, 174, 96);" rx="35.239" ry="35.239" transform="matrix(0.927184, -0.374605, 0.373136, 0.927778, -374.21106, 0.779025)"/>
  <rect x="352.407" y="161.671" width="73.368" height="356.743" style="fill: rgb(39, 174, 96);" rx="35.239" ry="35.239" transform="matrix(0.927183, 0.374608, -0.376077, 0.92659, -22.093174, -285.403015)"/>
  <g transform="matrix(1, 0, 0, 1, -1.158749, -1.738123)">
    <path style="fill: rgb(216, 216, 216); fill-opacity: 0; stroke-width: 19.7px; stroke: rgb(236, 240, 241);" d="M 241.62 49.912 C 264.83 60.53 271.778 37.403 277.53 24.827" transform="matrix(-0.999391, 0.034899, -0.034899, -0.999391, 519.91257, 68.376325)" bx:origin="0.494 0.5"/>
    <ellipse style="stroke-width: 0px; stroke: rgb(236, 240, 241); fill: rgb(236, 240, 241);" cx="30.581" cy="83.414" rx="10" ry="10" transform="matrix(-0.999391, 0.034899, -0.034899, -0.999391, 309.053217, 108.639962)"/>
    <rect x="166.28" y="175.198" width="19.699" height="54.675" style="stroke-width: 0px; stroke: rgb(236, 240, 241); fill: rgb(236, 240, 241);" rx="9.849" ry="9.849" transform="matrix(-0.927183, -0.374608, 0.374608, -0.927183, 323.439758, 321.928833)"/>
  </g>
  <g transform="matrix(1, 0, 0, 1, -1.158749, -1.738123)">
    <path style="fill: rgb(216, 216, 216); fill-opacity: 0; stroke-width: 19.7px; stroke: rgb(236, 240, 241);" d="M 27.601 72.841 C 55.357 73.326 59.413 50.485 42.874 24.425" transform="matrix(-0.999391, 0.034899, -0.034899, -0.999391, 81.616467, 95.848986)" bx:origin="0.494 0.5"/>
    <ellipse style="stroke-width: 0px; stroke: rgb(236, 240, 241); fill: rgb(236, 240, 241);" cx="30.581" cy="83.414" rx="10" ry="10" transform="matrix(-0.999391, 0.034899, -0.034899, -0.999391, 71.997415, 156.610551)"/>
    <ellipse style="stroke-width: 0px; stroke: rgb(236, 240, 241); fill: rgb(236, 240, 241);" cx="30.581" cy="83.414" rx="10" ry="10" transform="matrix(-0.999391, 0.034899, -0.034899, -0.999391, 81.513841, 106.594979)"/>
  </g>
  <g transform="matrix(1, 0, 0, 1, -1.158749, -1.738123)">
    <ellipse style="stroke: rgb(0, 0, 0); stroke-width: 0px; fill: rgb(34, 147, 81);" cx="137.313" cy="315.891" rx="10" ry="10"/>
    <path style="fill: rgb(216, 216, 216); fill-opacity: 0; stroke-width: 19.7px; stroke: rgb(34, 147, 81);" d="M 139.63 318.654 C 158.359 341.969 173.679 326.146 180.186 309.964" bx:origin="0.494 0.5"/>
    <rect x="166.28" y="254.346" width="19.699" height="79.374" style="stroke: rgb(0, 0, 0); fill: rgb(34, 147, 81); stroke-width: 0px;" rx="9.849" ry="9.849" transform="matrix(0.927184, 0.374607, -0.374607, 0.927184, 135.297379, -49.259537)"/>
  </g>
  <g transform="matrix(0.06829, 0, 0, -0.06829, -18.883621, 350.136902)" fill="#000000" stroke="none" style="">
    <path d="M830 5105 c-327 -74 -547 -411 -479 -737 11 -55 1619 -3950 1671 -4049 66 -126 208 -244 349 -290 103 -34 281 -35 384 -2 139 44 271 146 343 266 35 58 1629 3894 1667 4012 45 139 41 281 -11 413 -169 426 -704 537 -1024 213 -41 -42 -87 -99 -102 -126 -14 -28 -254 -601 -533 -1275 -279 -674 -512 -1235 -519 -1246 -10 -19 -79 142 -530 1233 -561 1356 -551 1333 -672 1441 -64 57 -162 112 -244 136 -79 24 -221 29 -300 11z m222 -176 c134 -28 252 -126 317 -261 21 -46 281 -668 576 -1383 584 -1413 560 -1363 633 -1351 20 3 44 13 53 23 13 14 614 1454 1074 2573 26 63 60 141 76 172 81 160 279 261 454 231 246 -42 407 -259 374 -501 -7 -48 -144 -390 -600 -1490 -325 -785 -601 -1449 -614 -1477 -12 -27 -113 -270 -225 -540 -111 -269 -212 -508 -225 -530 -79 -137 -253 -226 -411 -212 -156 15 -284 97 -353 227 -16 30 -349 829 -741 1775 -392 946 -752 1815 -800 1930 -104 250 -120 299 -120 379 1 202 135 377 330 428 77 20 130 22 202 7z" style=""/>
  </g>
</svg>